<svg width="55" height="61" viewBox="0 0 55 61" fill="none" xmlns="http://www.w3.org/2000/svg">
<path d="M25.1823 0V7.875H29.6247V0H25.1823ZM10.1285 7.37256L6.98763 11.0845L11.699 16.6523L14.8399 12.9404L10.1285 7.37256ZM44.6785 7.37256L39.9672 12.9404L43.1081 16.6523L47.8194 11.0845L44.6785 7.37256ZM27.4035 13.125C18.8423 13.125 11.8552 21.3824 11.8552 31.5C11.8552 38.7654 15.5337 44.8934 20.74 47.8652V55.125C20.74 57.9943 22.7544 60.375 25.1823 60.375H29.6247C32.0526 60.375 34.0671 57.9943 34.0671 55.125V47.8652C39.2733 44.8934 42.9519 38.7654 42.9519 31.5C42.9519 21.3824 35.9648 13.125 27.4035 13.125ZM27.4035 18.375C33.5644 18.375 38.5095 24.2191 38.5095 31.5C38.5095 37.2339 35.4117 42.06 31.1041 43.8611L29.6247 44.4763V55.125H25.1823V44.4763L23.703 43.8611C19.3954 42.06 16.2976 37.2339 16.2976 31.5C16.2976 24.2191 21.2427 18.375 27.4035 18.375ZM0.749199 28.875V34.125H7.41278V28.875H0.749199ZM47.3943 28.875V34.125H54.0579V28.875H47.3943ZM11.699 46.3477L6.98763 51.9155L10.1285 55.6274L14.8399 50.0596L11.699 46.3477ZM43.1081 46.3477L39.9672 50.0596L44.6785 55.6274L47.8194 51.9155L43.1081 46.3477Z" fill="#2986EA"/>
</svg>
