<svg width="181" height="165" viewBox="0 0 181 165" fill="none" xmlns="http://www.w3.org/2000/svg">
<path d="M73.9134 163.861C38.745 152.798 0.162887 102.561 0.104933 66.1592C0.0469781 29.7575 34.8761 0.192514 77.8979 0.12402C120.92 0.0555255 155.843 29.5095 155.901 65.9112C155.959 102.313 127.706 168.61 73.9134 163.861Z" fill="url(#paint0_linear_184_496)"/>
<path d="M28.44 80C28.7293 80 28.998 79.7107 29.246 79.132C29.5353 78.5533 29.68 77.6027 29.68 76.28V50.984L23.48 52.224V44.66C25.1747 44.66 26.9933 44.536 28.936 44.288C30.92 43.9987 32.8213 43.668 34.64 43.296C36.4587 42.8827 37.988 42.5107 39.228 42.18V76.28C39.228 77.6027 39.3727 78.5533 39.662 79.132C39.9513 79.7107 40.2407 80 40.53 80H28.44ZM63.16 80.62C57.6627 80.62 53.55 78.9873 50.822 75.722C48.094 72.4153 46.73 67.5793 46.73 61.214C46.73 55.014 48.1147 50.302 50.884 47.078C53.6533 43.8127 57.7453 42.18 63.16 42.18H63.842C69.174 42.18 73.1833 43.792 75.87 47.016C78.598 50.24 79.962 54.9727 79.962 61.214C79.962 67.5793 78.598 72.4153 75.87 75.722C73.1833 78.9873 69.174 80.62 63.842 80.62H63.16ZM63.16 73.738H63.842C65.2473 73.738 66.446 73.3867 67.438 72.684C68.43 71.94 69.1947 70.6587 69.732 68.84C70.2693 67.0213 70.538 64.4793 70.538 61.214C70.538 58.0313 70.2693 55.572 69.732 53.836C69.1947 52.0587 68.43 50.8187 67.438 50.116C66.446 49.372 65.2473 49 63.842 49H63.16C61.7547 49 60.5147 49.3513 59.44 50.054C58.4067 50.7567 57.6007 51.9967 57.022 53.774C56.4433 55.51 56.154 57.99 56.154 61.214C56.154 64.5207 56.4433 67.0833 57.022 68.902C57.6007 70.7207 58.4067 71.9813 59.44 72.684C60.5147 73.3867 61.7547 73.738 63.16 73.738ZM101.365 80.62C95.8677 80.62 91.7551 78.9873 89.0271 75.722C86.2991 72.4153 84.9351 67.5793 84.9351 61.214C84.9351 55.014 86.3197 50.302 89.0891 47.078C91.8584 43.8127 95.9504 42.18 101.365 42.18H102.047C107.379 42.18 111.388 43.792 114.075 47.016C116.803 50.24 118.167 54.9727 118.167 61.214C118.167 67.5793 116.803 72.4153 114.075 75.722C111.388 78.9873 107.379 80.62 102.047 80.62H101.365ZM101.365 73.738H102.047C103.452 73.738 104.651 73.3867 105.643 72.684C106.635 71.94 107.4 70.6587 107.937 68.84C108.474 67.0213 108.743 64.4793 108.743 61.214C108.743 58.0313 108.474 55.572 107.937 53.836C107.4 52.0587 106.635 50.8187 105.643 50.116C104.651 49.372 103.452 49 102.047 49H101.365C99.9597 49 98.7197 49.3513 97.6451 50.054C96.6117 50.7567 95.8057 51.9967 95.2271 53.774C94.6484 55.51 94.3591 57.99 94.3591 61.214C94.3591 64.5207 94.6484 67.0833 95.2271 68.902C95.8057 70.7207 96.6117 71.9813 97.6451 72.684C98.7197 73.3867 99.9597 73.738 101.365 73.738ZM129.96 71.94V50.86H136.16V71.94H129.96ZM122.52 64.5V58.3H143.6V64.5H122.52Z" fill="white"/>
<path d="M42.4049 104.21C41.0889 104.21 39.9829 104.14 39.0869 104C38.2049 103.86 37.6029 103.72 37.2809 103.58V103.16L36.8399 101.354C37.2039 101.648 37.8409 101.956 38.7509 102.278C39.6749 102.586 40.7949 102.74 42.1109 102.74C42.9789 102.74 43.6299 102.684 44.0639 102.572C44.4979 102.446 44.7849 102.285 44.9249 102.089C45.0649 101.879 45.1349 101.648 45.1349 101.396C45.1349 101.102 45.0299 100.871 44.8199 100.703C44.6239 100.521 44.2459 100.374 43.6859 100.262C43.1399 100.136 42.3279 100.01 41.2499 99.884C40.0739 99.744 39.1639 99.541 38.5199 99.275C37.8899 99.009 37.4559 98.673 37.2179 98.267C36.9799 97.847 36.8609 97.35 36.8609 96.776C36.8609 96.328 36.9799 95.887 37.2179 95.453C37.4559 95.019 37.8969 94.662 38.5409 94.382C39.1989 94.102 40.1299 93.962 41.3339 93.962C42.6359 93.962 43.7279 94.032 44.6099 94.172C45.5059 94.312 46.1149 94.452 46.4369 94.592V95.012L46.8569 96.608C46.5069 96.356 45.8699 96.097 44.9459 95.831C44.0219 95.565 42.9089 95.432 41.6069 95.432C40.5709 95.432 39.8779 95.551 39.5279 95.789C39.1779 96.013 39.0029 96.307 39.0029 96.671C39.0029 96.881 39.0449 97.07 39.1289 97.238C39.2129 97.392 39.3809 97.532 39.6329 97.658C39.8989 97.784 40.2909 97.896 40.8089 97.994C41.3409 98.092 42.0479 98.19 42.9299 98.288C44.1199 98.414 45.0229 98.61 45.6389 98.876C46.2549 99.142 46.6749 99.478 46.8989 99.884C47.1369 100.276 47.2559 100.738 47.2559 101.27C47.2559 101.844 47.0949 102.355 46.7729 102.803C46.4649 103.237 45.9539 103.58 45.2399 103.832C44.5259 104.084 43.5809 104.21 42.4049 104.21ZM53.0374 104.21C52.0714 104.21 51.3714 104.007 50.9374 103.601C50.5034 103.181 50.2864 102.502 50.2864 101.564V95.642H48.3964V94.172C49.0404 94.172 49.5444 94.095 49.9084 93.941C50.2724 93.773 50.5314 93.486 50.6854 93.08C50.8394 92.674 50.9164 92.107 50.9164 91.379H52.4284V94.172H56.4394C56.3414 94.312 56.2434 94.522 56.1454 94.802C56.0614 95.068 56.0194 95.348 56.0194 95.642H52.4284V101.249C52.4284 101.893 52.5474 102.299 52.7854 102.467C53.0234 102.635 53.3244 102.719 53.6884 102.719C54.0384 102.719 54.3604 102.649 54.6544 102.509C54.9624 102.355 55.2284 102.173 55.4524 101.963C55.6904 101.753 55.8724 101.55 55.9984 101.354V102.005L56.2084 103.202C56.0684 103.342 55.8514 103.496 55.5574 103.664C55.2634 103.818 54.9064 103.944 54.4864 104.042C54.0664 104.154 53.5834 104.21 53.0374 104.21ZM62.0692 104.21C61.2572 104.21 60.5432 104.07 59.9272 103.79C59.3252 103.496 58.8562 102.999 58.5202 102.299C58.1982 101.585 58.0372 100.598 58.0372 99.338V95.432C58.0372 94.984 57.9882 94.662 57.8902 94.466C57.8062 94.27 57.7152 94.172 57.6172 94.172H60.6202C60.5222 94.172 60.4172 94.27 60.3052 94.466C60.2072 94.662 60.1582 94.984 60.1582 95.432V99.632C60.1582 100.822 60.3682 101.634 60.7882 102.068C61.2082 102.502 61.7612 102.719 62.4472 102.719C63.1332 102.719 63.7282 102.551 64.2322 102.215C64.7362 101.879 65.1282 101.417 65.4082 100.829C65.7022 100.241 65.8492 99.576 65.8492 98.834V95.432C65.8492 94.984 65.8002 94.669 65.7022 94.487C65.6182 94.291 65.5272 94.186 65.4292 94.172H67.9912V102.74C67.9912 103.188 68.0332 103.51 68.1172 103.706C68.2152 103.902 68.3132 104 68.4112 104H65.8492V102.74L65.8912 102.32L65.8492 102.278C65.7652 102.446 65.6252 102.642 65.4292 102.866C65.2332 103.076 64.9742 103.286 64.6522 103.496C64.3442 103.706 63.9732 103.874 63.5392 104C63.1052 104.14 62.6152 104.21 62.0692 104.21ZM75.039 104.21C73.709 104.21 72.673 103.986 71.931 103.538C71.203 103.09 70.692 102.481 70.398 101.711C70.118 100.941 69.978 100.073 69.978 99.107C69.978 98.127 70.118 97.252 70.398 96.482C70.692 95.712 71.203 95.103 71.931 94.655C72.673 94.193 73.709 93.962 75.039 93.962C75.599 93.962 76.096 94.018 76.53 94.13C76.964 94.228 77.342 94.368 77.664 94.55C77.986 94.718 78.252 94.921 78.462 95.159L78.504 95.138L78.462 94.739V90.77C78.462 90.322 78.413 90.007 78.315 89.825C78.231 89.629 78.14 89.524 78.042 89.51H80.604V102.74C80.604 103.188 80.646 103.51 80.73 103.706C80.828 103.902 80.926 104 81.024 104H78.462V103.349L78.525 102.95L78.462 102.929C78.252 103.167 77.986 103.384 77.664 103.58C77.342 103.776 76.964 103.93 76.53 104.042C76.096 104.154 75.599 104.21 75.039 104.21ZM75.186 102.719C75.9 102.719 76.474 102.614 76.908 102.404C77.342 102.18 77.671 101.893 77.895 101.543C78.119 101.179 78.266 100.787 78.336 100.367C78.42 99.947 78.462 99.527 78.462 99.107C78.462 98.743 78.42 98.351 78.336 97.931C78.252 97.497 78.098 97.091 77.874 96.713C77.65 96.335 77.321 96.027 76.887 95.789C76.453 95.551 75.886 95.432 75.186 95.432C74.01 95.432 73.198 95.768 72.75 96.44C72.316 97.112 72.099 98.008 72.099 99.128C72.099 99.87 72.183 100.514 72.351 101.06C72.533 101.592 72.848 102.005 73.296 102.299C73.744 102.579 74.374 102.719 75.186 102.719ZM88.3179 104.21C87.2119 104.21 86.3019 104.084 85.5879 103.832C84.8739 103.566 84.3139 103.202 83.9079 102.74C83.5019 102.278 83.2149 101.739 83.0469 101.123C82.8929 100.507 82.8159 99.835 82.8159 99.107C82.8159 97.525 83.2639 96.272 84.1599 95.348C85.0699 94.424 86.4139 93.962 88.1919 93.962C89.2279 93.962 90.0609 94.102 90.6909 94.382C91.3349 94.662 91.8179 95.033 92.1399 95.495C92.4759 95.957 92.6999 96.461 92.8119 97.007C92.9379 97.539 93.0009 98.064 93.0009 98.582V99.569C93.0009 99.527 92.8049 99.485 92.4129 99.443C92.0349 99.387 91.3909 99.359 90.4809 99.359H84.9579C84.9579 100.395 85.2659 101.214 85.8819 101.816C86.4979 102.418 87.4149 102.719 88.6329 102.719C89.6829 102.719 90.5439 102.593 91.2159 102.341C91.9019 102.075 92.3569 101.816 92.5809 101.564V101.984L92.7909 103.37C92.4829 103.552 91.9369 103.741 91.1529 103.937C90.3829 104.119 89.4379 104.21 88.3179 104.21ZM85.7979 97.973H90.9009C90.9009 97.609 90.8239 97.231 90.6699 96.839C90.5159 96.447 90.2429 96.118 89.8509 95.852C89.4589 95.572 88.9059 95.432 88.1919 95.432C87.5899 95.432 87.0649 95.537 86.6169 95.747C86.1689 95.943 85.8189 96.202 85.5669 96.524C85.3289 96.846 85.2099 97.189 85.2099 97.553C85.2099 97.693 85.2519 97.798 85.3359 97.868C85.4199 97.938 85.5739 97.973 85.7979 97.973ZM94.7979 104C94.8959 104 94.9869 103.902 95.0709 103.706C95.1689 103.51 95.2179 103.188 95.2179 102.74V95.642C95.2179 95.194 95.1689 94.879 95.0709 94.697C94.9869 94.501 94.8959 94.396 94.7979 94.382C95.4139 94.382 95.9459 94.34 96.3939 94.256C96.8559 94.158 97.1779 94.06 97.3599 93.962V95.243L97.3179 95.516L97.3599 95.558C97.5699 95.292 97.8359 95.04 98.1579 94.802C98.4939 94.564 98.9069 94.368 99.3969 94.214C99.8869 94.046 100.461 93.962 101.119 93.962C102.421 93.962 103.415 94.333 104.101 95.075C104.801 95.817 105.151 96.979 105.151 98.561V102.74C105.151 103.188 105.193 103.51 105.277 103.706C105.375 103.902 105.473 104 105.571 104H102.589C102.687 104 102.778 103.902 102.862 103.706C102.96 103.51 103.009 103.188 103.009 102.74V98.624C103.009 97.798 102.904 97.154 102.694 96.692C102.484 96.23 102.19 95.908 101.812 95.726C101.448 95.53 101.021 95.432 100.531 95.432C100.013 95.432 99.5089 95.544 99.0189 95.768C98.5289 95.992 98.1299 96.349 97.8219 96.839C97.5139 97.329 97.3599 97.987 97.3599 98.813V102.74C97.3599 103.188 97.4019 103.51 97.4859 103.706C97.5839 103.902 97.6819 104 97.7799 104H94.7979ZM111.464 104.21C110.498 104.21 109.798 104.007 109.364 103.601C108.93 103.181 108.713 102.502 108.713 101.564V95.642H106.823V94.172C107.467 94.172 107.971 94.095 108.335 93.941C108.699 93.773 108.958 93.486 109.112 93.08C109.266 92.674 109.343 92.107 109.343 91.379H110.855V94.172H114.866C114.768 94.312 114.67 94.522 114.572 94.802C114.488 95.068 114.446 95.348 114.446 95.642H110.855V101.249C110.855 101.893 110.974 102.299 111.212 102.467C111.45 102.635 111.751 102.719 112.115 102.719C112.465 102.719 112.787 102.649 113.081 102.509C113.389 102.355 113.655 102.173 113.879 101.963C114.117 101.753 114.299 101.55 114.425 101.354V102.005L114.635 103.202C114.495 103.342 114.278 103.496 113.984 103.664C113.69 103.818 113.333 103.944 112.913 104.042C112.493 104.154 112.01 104.21 111.464 104.21ZM121.483 104.21C120.167 104.21 119.061 104.14 118.165 104C117.283 103.86 116.681 103.72 116.359 103.58V103.16L115.918 101.354C116.282 101.648 116.919 101.956 117.829 102.278C118.753 102.586 119.873 102.74 121.189 102.74C122.057 102.74 122.708 102.684 123.142 102.572C123.576 102.446 123.863 102.285 124.003 102.089C124.143 101.879 124.213 101.648 124.213 101.396C124.213 101.102 124.108 100.871 123.898 100.703C123.702 100.521 123.324 100.374 122.764 100.262C122.218 100.136 121.406 100.01 120.328 99.884C119.152 99.744 118.242 99.541 117.598 99.275C116.968 99.009 116.534 98.673 116.296 98.267C116.058 97.847 115.939 97.35 115.939 96.776C115.939 96.328 116.058 95.887 116.296 95.453C116.534 95.019 116.975 94.662 117.619 94.382C118.277 94.102 119.208 93.962 120.412 93.962C121.714 93.962 122.806 94.032 123.688 94.172C124.584 94.312 125.193 94.452 125.515 94.592V95.012L125.935 96.608C125.585 96.356 124.948 96.097 124.024 95.831C123.1 95.565 121.987 95.432 120.685 95.432C119.649 95.432 118.956 95.551 118.606 95.789C118.256 96.013 118.081 96.307 118.081 96.671C118.081 96.881 118.123 97.07 118.207 97.238C118.291 97.392 118.459 97.532 118.711 97.658C118.977 97.784 119.369 97.896 119.887 97.994C120.419 98.092 121.126 98.19 122.008 98.288C123.198 98.414 124.101 98.61 124.717 98.876C125.333 99.142 125.753 99.478 125.977 99.884C126.215 100.276 126.334 100.738 126.334 101.27C126.334 101.844 126.173 102.355 125.851 102.803C125.543 103.237 125.032 103.58 124.318 103.832C123.604 104.084 122.659 104.21 121.483 104.21Z" fill="white"/>
<defs>
<linearGradient id="paint0_linear_184_496" x1="155.926" y1="81.9906" x2="-205.5" y2="82" gradientUnits="userSpaceOnUse">
<stop stop-color="#11406B"/>
<stop offset="0.669792" stop-color="#1184F1" stop-opacity="0.897401"/>
<stop offset="1" stop-color="#117DF1" stop-opacity="0.3"/>
<stop offset="1" stop-color="#001F41"/>
</linearGradient>
</defs>
</svg>
